<?xml version="1.0" encoding="utf-8"?>
<!-- Generator: Adobe Illustrator 27.0.0, SVG Export Plug-In . SVG Version: 6.00 Build 0)  -->
<svg version="1.1" id="Layer_1" xmlns="http://www.w3.org/2000/svg" xmlns:xlink="http://www.w3.org/1999/xlink" x="0px" y="0px"
	 viewBox="0 0 3368.4 711.5" style="enable-background:new 0 0 3368.4 711.5;" xml:space="preserve">
<style type="text/css">
	.st0{fill:#017173;}
	.st1{fill:#EBFBF2;}
	.st2{fill:#05E38E;}
</style>
<g>
	<path class="st0" d="M3351.9,443c-2.3,6.2-2.3,12.8-3.7,19.2c-9.2,42.9-36.8,70-75.2,87.6c-27.8,12.7-57.4,18.2-87.8,20.4
		c-25.3,1.8-50.6,1.6-75.8-1.3c-36.7-4.3-71.7-13.8-102.2-35.8c-30.9-22.3-49.6-52.1-54.4-90.3c-0.4-2.8-0.3-5.7-1.1-8.4
		c-1.3-4.8,1.2-5.8,5.1-6.3c29-3.8,58-7.6,86.9-11.7c4.7-0.7,3.6,2.7,3.9,4.5c1.4,9.1,3.5,17.9,7.6,26.2c8.5,17.3,22.5,29,40.1,35.6
		c38.7,14.5,78.3,15.8,117.7,3.2c19.7-6.3,34.4-18.7,37.9-40.7c3.6-22.6-5-38.6-25.9-48.4c-22.1-10.4-45.7-15.8-69.4-20.7
		c-32.5-6.7-65.2-12.5-96.8-22.9c-25.7-8.5-49.7-19.6-68.5-40c-15.7-17.1-24.9-36.9-27.7-60c-2.4-20.4-2-40.4,4.9-60
		c8.5-24.3,24.5-42.7,45.5-57.1c22-15.1,46.7-23.4,72.6-28.8c27.4-5.7,55.1-7.1,82.9-5.8c34,1.6,66.8,8.3,97.1,24.8
		c41.2,22.5,65,57.1,73.1,103c0.5,3.1,0.8,6.3,1.2,9.4c0.9,6.8,0.9,6.7-6.1,7.5c-11.5,1.4-23,3.2-34.6,4.7
		c-16.5,2.2-33,4.2-49.4,6.6c-2.5,0.4-2.9-0.2-3.3-2.5c-1.7-11.8-3.5-23.7-9.4-34.4c-10.6-19.3-27.3-31.4-48.1-37
		c-32.9-8.8-65.8-8.1-97.6,5.5c-15,6.4-25.9,16.7-29.7,33.2c-5.1,22.1,4.3,41.2,24.8,51.1c20,9.6,41.4,15.1,62.9,19.8
		c34.2,7.5,68.7,13.7,102.4,23.2c18.7,5.3,36.6,12.8,52.8,24c28,19.3,44.2,45.4,46.2,79.7c0.9,1.9-0.4,4.2,0.8,6.1c0,0.7,0,1.3,0,2
		c-1.1,2.5-0.2,5.2-0.5,7.8c0.3,2.1-0.6,4.2,0.5,6.2C3351.9,442.3,3351.9,442.6,3351.9,443z"/>
	<path class="st1" d="M284.1,28.1c0,122.2,0,244.4,0,366.6c0,1.5-0.1,3-0.2,4.5c-2.3-0.7-2.2-2.7-2.4-4.5c-0.3-2.5-0.1-5-0.1-7.5
		c0-115.6,0-231.2,0-346.8c0-9.6,0-9.6-9.5-9.6c-83,0-166,0-249,0c-9.2,0-9.2,0-9.2,9.4c0,99.8,0,199.6,0,299.4
		c0,3.2,0.9,6.7-1.8,9.5l-0.4,0l-0.4,0c0-105.5,0-211.1-0.1-316.6c0-3.5,0.7-4.4,4.3-4.4C104.9,28.1,194.5,28.1,284.1,28.1z"/>
	<path class="st2" d="M12,349c0.1-2.7,0.2-5.3,0.2-8c0-102.1,0-204.2-0.1-306.2c0-4.3,0.8-5.8,5.6-5.8c86.6,0.2,173.2,0.2,259.9,0
		c4.4,0,5.8,0.9,5.8,5.6c-0.1,113.9-0.1,227.8-0.1,341.7c0,7.6-0.6,15.3,0.8,22.9c1.8,38.4,10,74.9,35.2,105.3
		c15.9,19.2,36.9,31.3,61.2,37.3c13.9,3.4,28,5.6,42.4,5.3c4,0.2,4.7,1.7,3.1,5.5c-7.3,17.4-18.7,31.7-32.7,44
		c-22.1,19.3-48,31.3-76.2,38.6c-14.5,3.8-29.4,5.7-44.3,6.6c-31.1,2-61.8-0.1-92-8.3c-30.4-8.2-57.9-21.9-81.8-42.7
		c-27.5-23.9-46.3-53.7-59.7-87c-15-37.2-22.1-76.2-25-116C13,374.9,12.3,362,12,349z"/>
	<path class="st2" d="M428.9,129.1c1.1-9.6,2.4-19.1,5.4-28.3c13.6-40.6,49.5-68.4,92.3-71.4c0.5,0,1-0.2,1.4-0.4
		c55.5,0,111,0.1,166.5-0.1c4.7,0,5.6,1.4,5.6,5.8c-0.1,83.1,0,166.3-0.1,249.4c0,45.3-10.4,88.1-32.1,127.9
		c-14.9,27.2-34.3,50.8-57.7,71.2c-34.1,29.7-73.5,48.6-117.5,58.2c-19.8,4.3-39.8,5.5-60,5.6c-2.8,0-4.1-0.6-3.7-3.6
		c0.2-1.1,0-2.3,0-3.5c0-135.8,0-271.6,0-407.3C429.1,131.4,429,130.2,428.9,129.1z"/>
	<path class="st0" d="M2278.7,571.2c-37.4-0.1-70.9-3.4-103.1-14.4c-35.4-12.2-65.4-31.6-85-64.7c-10.7-18.1-15.8-37.8-17.7-58.6
		c-0.3-3.7,0.8-4.9,4.3-5.3c23.2-3,46.4-6.1,69.7-9.2c5.8-0.8,11.6-1.1,17.3-2.4c4-0.9,4.4,0.7,4.8,3.9c1.7,11.8,4.7,23.1,11.3,33.2
		c11.6,17.7,28.6,28.1,48.6,33.4c35.2,9.4,70.6,10.5,105.6-1.1c17.8-5.9,31.8-16.6,36.9-35.9c6.5-24.2-2.6-42.8-25.4-53.4
		c-23.5-11-48.6-16.4-73.8-21.5c-34-6.9-68-13.3-100.8-25c-26.4-9.4-49.6-23.1-66.9-45.7c-11.2-14.7-17.5-31.1-20-49.2
		c-2.7-19.3-2.8-38.5,2.8-57.3c8-26.4,24.7-46.3,46.9-61.9c21.4-15.1,45.7-23.3,71-28.6c30-6.4,60.3-7.1,90.8-5.4
		c24.1,1.4,47.5,5.5,69.9,14.3c44.9,17.7,76.5,48.2,90.4,95.4c2.8,9.4,4.2,19.1,5.6,28.8c0.5,3.5-0.3,5-4,5.5
		c-18.3,2.3-36.6,4.8-54.8,7.2c-10.2,1.4-20.4,2.6-30.6,4.2c-3.2,0.5-4.2-0.2-4.6-3.6c-1.7-15.3-5.4-30.1-15.2-42.5
		c-12.2-15.5-28.3-25.1-47.4-29.1c-31.4-6.6-62.4-5.9-92.3,7.1c-19.7,8.6-31,23.2-30.8,45.1c0.2,17.3,8.5,30.1,24,37.9
		c22,11,45.7,16.7,69.5,22c32.5,7.3,65.5,12.9,97.5,22.2c27,7.8,52.4,19.1,72.4,40c16.1,16.9,24.3,37.1,26.6,60.2
		c2.3,23.6-0.4,46.5-9.7,68.3c-13.3,31.4-38.2,51.3-68.5,65c-27.4,12.4-56.4,18.3-86.3,20.4C2296.9,570.8,2286.1,571.1,2278.7,571.2
		z"/>
	<path class="st0" d="M2582,683c-2,0-4,0-6,0c-9.7,0-19.4,0-29.1,0c-2,0-4,0-5.9,0c-6.3-0.4-12.6-1-18.9-1c-3.1,0-3.5-1.3-3.5-3.9
		c0.1-23.7,0.1-47.3,0-71c0-3.8,1.3-4.6,4.6-4.2c10,1.3,20,1.1,30,0.8c16.3-0.4,32.6-1.3,48.1-7.1c15.7-5.8,26-17.5,34.5-31.1
		c7.3-11.7,12.6-24.5,18.7-36.8c1.2-2.3,0.2-4.2-0.5-6.2c-22-59.3-44.1-118.6-66.1-177.9c-28.3-76.2-56.7-152.5-85-228.7
		c-0.6-1.5-1.1-3-1.8-5c8.4,0,16.4,0,24.4,0c25.8,0,51.7,0.1,77.5-0.1c3.2,0,4.5,0.9,5.6,4c34.6,104.9,70.1,209.6,101.3,315.6
		c0.4,1.4,0.8,2.9,1.2,4.3c0.5,1.5,1.8,1.2,2.9,1.3c2.3,0.2,2.6-1.5,3.1-3.1c5.6-17.2,11.1-34.4,16.8-51.5
		c29.4-89,60.1-177.7,90.1-266.5c0.8-2.3,1.2-4.1,4.5-4c33,0.2,66,0.1,99,0.1c0.3,0,0.6,0.1,1.5,0.3c-4,10.4-8,20.6-11.9,30.9
		c-50.7,131.5-101.4,263.1-152.1,394.6c-10.8,28.1-23.3,55.3-41.2,79.7c-24.4,33.2-56.9,53.3-97.1,61.1
		C2611.8,680.6,2597,682.5,2582,683z"/>
	<path class="st0" d="M1317,262.3c0,41.3,0.3,82.6-0.1,123.9c-0.2,22.3-1.7,44.5-7.8,66.2c-11.6,41.2-36.9,71.5-74.1,92.2
		c-26.8,14.9-55.7,22.9-86.2,25.5c-36.5,3.1-72.8,2.7-108.8-5.3c-33.6-7.5-63.6-22.1-88.4-46.4c-23.2-22.7-35.5-50.9-41.5-82.2
		c-3.3-17.1-4-34.3-4-51.7c0-89.3,0.1-178.6-0.1-267.9c0-4.4,1-5.8,5.6-5.8c29.2,0.2,58.3,0.2,87.5,0c4.6,0,6,0.8,6,5.8
		c-0.2,89.6-0.2,179.3-0.1,268.9c0,18.5,2.4,36.8,9.7,54c10.9,25.5,30.3,40.7,57.1,46.4c26.7,5.6,53.5,6.2,80.2,0.2
		c36.2-8.3,55.7-32.5,62.8-67.9c2.3-11.6,3.1-23.4,3-35.2c0-88.8,0-177.6-0.1-266.4c0-4.6,1.2-5.7,5.7-5.7c29.5,0.2,59,0.2,88.5,0
		c4,0,4.9,1.2,4.9,5C1316.9,164.7,1317,213.5,1317,262.3z"/>
	<path class="st0" d="M1799.3,410.7c0,48.6,0,97.3,0.1,145.9c0,4-0.8,5.3-5.1,5.3c-29.5-0.2-59-0.2-88.5,0c-4.2,0-5.2-1.1-5.2-5.2
		c0.1-87.5,0.1-174.9,0-262.4c0-16-0.8-31.9-5-47.5c-9.2-34.4-31.3-55-66.3-61.7c-25.2-4.8-50.3-4.6-74.9,3.2
		c-29,9.2-45.9,29.7-53.5,58.6c-3.5,13.6-4.7,27.5-4.7,41.5c-0.1,89.1-0.1,178.3,0,267.4c0,4.7-0.9,6.1-5.9,6.1
		c-29.3-0.3-58.7-0.2-88,0c-4,0-4.9-1.2-4.9-5c0.2-94.3,0-188.6,0.6-282.9c0.2-26.5,4.1-52.6,15.4-77.1c15-32.2,39.1-55.3,70.1-71.7
		c29.9-15.9,62-22.6,95.6-24.4c20.6-1.1,40.9-0.3,61.3,2.3c43.8,5.4,83.4,20.5,115.1,52.5c21.5,21.7,33.2,48.5,39.2,78
		c3.5,17,4.3,34.3,4.3,51.6C1799.2,327.1,1799.3,368.9,1799.3,410.7z"/>
	<path class="st0" d="M1895.5,336c0-73.1,0-146.3-0.1-219.4c0-4.5,1.1-5.8,5.7-5.7c29.2,0.2,58.3,0.2,87.5,0c3.7,0,4.7,0.9,4.6,4.7
		c-0.1,147.1-0.1,294.2,0,441.3c0,3.4-0.6,4.5-4.3,4.5c-29.5-0.2-59-0.2-88.5,0c-4.6,0-5-1.7-5-5.5
		C1895.5,482.6,1895.5,409.3,1895.5,336z"/>
</g>
</svg>
